<svg width="24" height="24" viewBox="0 0 24 24" fill="none" xmlns="http://www.w3.org/2000/svg">
<path d="M13.0281 2.00086C13.7578 1.99806 14.4876 2.0054 15.2171 2.02286L15.4111 2.02986C15.6351 2.03786 15.8561 2.04786 16.1231 2.05986C17.1871 2.10986 17.9131 2.27786 18.5501 2.52486C19.2101 2.77886 19.7661 3.12286 20.3221 3.67886C20.8305 4.17847 21.2239 4.78281 21.4751 5.44986C21.7221 6.08686 21.8901 6.81386 21.9401 7.87786C21.9521 8.14386 21.9621 8.36586 21.9701 8.58986L21.9761 8.78386C21.9939 9.51306 22.0015 10.2425 21.9991 10.9719L22.0001 11.7179V13.0279C22.0026 13.7576 21.9949 14.4873 21.9771 15.2169L21.9711 15.4109C21.9631 15.6349 21.9531 15.8559 21.9411 16.1229C21.8911 17.1869 21.7211 17.9129 21.4751 18.5499C21.2247 19.2176 20.8312 19.8225 20.3221 20.3219C19.8221 20.8302 19.2174 21.2236 18.5501 21.4749C17.9131 21.7219 17.1871 21.8899 16.1231 21.9399C15.8561 21.9519 15.6351 21.9619 15.4111 21.9699L15.2171 21.9759C14.4876 21.9936 13.7578 22.0013 13.0281 21.9989L12.2821 21.9999H10.9731C10.2434 22.0023 9.51361 21.9947 8.78409 21.9769L8.59009 21.9709C8.3527 21.9623 8.11536 21.9523 7.87809 21.9409C6.81409 21.8909 6.08809 21.7209 5.45009 21.4749C4.78277 21.2242 4.17833 20.8307 3.67909 20.3219C3.17013 19.8221 2.77631 19.2174 2.52509 18.5499C2.27809 17.9129 2.11009 17.1869 2.06009 16.1229C2.04895 15.8856 2.03895 15.6482 2.03009 15.4109L2.02509 15.2169C2.00665 14.4873 1.99832 13.7576 2.00009 13.0279V10.9719C1.9973 10.2425 2.00463 9.51306 2.02209 8.78386L2.02909 8.58986C2.03709 8.36586 2.04709 8.14386 2.05909 7.87786C2.10909 6.81286 2.27709 6.08786 2.52409 5.44986C2.77546 4.78248 3.17005 4.17831 3.68009 3.67986C4.17898 3.17062 4.78305 2.77644 5.45009 2.52486C6.08809 2.27786 6.81309 2.10986 7.87809 2.05986L8.59009 2.02986L8.78409 2.02486C9.51327 2.00644 10.2427 1.9981 10.9721 1.99986L13.0281 2.00086ZM12.0001 7.00086C11.3376 6.99149 10.6798 7.11389 10.0651 7.36093C9.45029 7.60798 8.89074 7.97474 8.41893 8.43992C7.94713 8.9051 7.57249 9.4594 7.31678 10.0706C7.06106 10.6819 6.92938 11.3378 6.92938 12.0004C6.92938 12.6629 7.06106 13.3189 7.31678 13.9301C7.57249 14.5413 7.94713 15.0956 8.41893 15.5608C8.89074 16.026 9.45029 16.3928 10.0651 16.6398C10.6798 16.8868 11.3376 17.0092 12.0001 16.9999C13.3262 16.9999 14.5979 16.4731 15.5356 15.5354C16.4733 14.5977 17.0001 13.3259 17.0001 11.9999C17.0001 10.6738 16.4733 9.40201 15.5356 8.46433C14.5979 7.52665 13.3262 7.00086 12.0001 7.00086ZM12.0001 9.00086C12.3986 8.99352 12.7946 9.06566 13.1649 9.21307C13.5352 9.36048 13.8724 9.58021 14.1569 9.85941C14.4413 10.1386 14.6673 10.4717 14.8215 10.8392C14.9758 11.2067 15.0553 11.6013 15.0554 11.9999C15.0554 12.3984 14.9761 12.793 14.8219 13.1606C14.6678 13.5281 14.4419 13.8613 14.1576 14.1406C13.8732 14.4199 13.5361 14.6397 13.1658 14.7873C12.7955 14.9348 12.3996 15.0071 12.0011 14.9999C11.2054 14.9999 10.4424 14.6838 9.87977 14.1212C9.31716 13.5586 9.00109 12.7955 9.00109 11.9999C9.00109 11.2042 9.31716 10.4412 9.87977 9.87854C10.4424 9.31593 11.2054 8.99986 12.0011 8.99986L12.0001 9.00086ZM17.2501 5.50086C16.9275 5.51378 16.6224 5.65101 16.3987 5.88384C16.175 6.11666 16.0501 6.427 16.0501 6.74986C16.0501 7.07273 16.175 7.38307 16.3987 7.61589C16.6224 7.84871 16.9275 7.98595 17.2501 7.99886C17.5816 7.99886 17.8996 7.86717 18.134 7.63275C18.3684 7.39833 18.5001 7.08038 18.5001 6.74886C18.5001 6.41734 18.3684 6.0994 18.134 5.86498C17.8996 5.63056 17.5816 5.49886 17.2501 5.49886V5.50086Z" fill="white"/>
</svg>
