<svg width="24" height="24" viewBox="0 0 24 24" fill="none" xmlns="http://www.w3.org/2000/svg">
<path d="M20.3996 15.4028L15.9708 13.4181C15.7702 13.3321 15.5512 13.2976 15.3338 13.3175C15.1164 13.3375 14.9075 13.4114 14.7258 13.5325C14.7074 13.5443 14.6898 13.5575 14.6733 13.5719L12.3586 15.5406C12.3346 15.5537 12.3079 15.561 12.2805 15.562C12.2532 15.563 12.226 15.5576 12.2011 15.5462C10.7133 14.8281 9.17206 13.2963 8.45112 11.8291C8.43912 11.8045 8.43288 11.7776 8.43288 11.7503C8.43288 11.723 8.43912 11.6961 8.45112 11.6716L10.4264 9.32781C10.4406 9.31047 10.4538 9.29231 10.4658 9.27344C10.5852 9.0911 10.6574 8.88189 10.6757 8.66469C10.694 8.44749 10.658 8.22915 10.5708 8.02938L8.60019 3.60813C8.48828 3.34713 8.29474 3.12948 8.04862 2.98782C7.8025 2.84617 7.51708 2.78816 7.23519 2.8225C6.01008 2.98356 4.88554 3.58519 4.07171 4.51497C3.25787 5.44475 2.81043 6.63905 2.813 7.87469C2.813 15.2153 8.78487 21.1872 16.1255 21.1872C17.3611 21.1896 18.5553 20.742 19.485 19.9282C20.4147 19.1144 21.0164 17.99 21.1777 16.765C21.212 16.4844 21.1547 16.2003 21.0145 15.9549C20.8743 15.7094 20.6586 15.5158 20.3996 15.4028ZM16.1255 20.0622C9.4055 20.0622 3.938 14.5947 3.938 7.87469C3.93487 6.91275 4.28207 5.98257 4.91473 5.25795C5.54739 4.53332 6.42224 4.06383 7.37581 3.93719H7.39737C7.43515 3.93789 7.47184 3.95 7.50262 3.97191C7.5334 3.99383 7.55684 4.02453 7.56987 4.06L9.548 8.47656C9.55928 8.50112 9.56512 8.52782 9.56512 8.55484C9.56512 8.58187 9.55928 8.60857 9.548 8.63312L7.56894 10.9825C7.55417 10.9993 7.5407 11.0171 7.52862 11.0359C7.40479 11.225 7.33186 11.4428 7.31692 11.6683C7.30197 11.8938 7.34551 12.1194 7.44331 12.3231C8.27487 14.0256 9.9905 15.7281 11.7117 16.5597C11.9167 16.657 12.1433 16.6994 12.3696 16.683C12.5958 16.6666 12.814 16.5918 13.0027 16.4659C13.0205 16.4537 13.0383 16.4406 13.0552 16.4266L15.3689 14.4578C15.3918 14.4455 15.417 14.4383 15.4429 14.4367C15.4688 14.4351 15.4947 14.4391 15.5189 14.4484L19.9486 16.4331C19.9848 16.4485 20.0152 16.4749 20.0356 16.5086C20.0559 16.5422 20.0652 16.5814 20.0621 16.6206C19.9361 17.5746 19.467 18.4501 18.7426 19.0835C18.0181 19.7169 17.0878 20.0648 16.1255 20.0622Z" fill="white"/>
</svg>
