<?xml version="1.0" encoding="UTF-8"?>
<svg id="Layer_2" data-name="Layer 2" xmlns="http://www.w3.org/2000/svg" xmlns:xlink="http://www.w3.org/1999/xlink" viewBox="0 0 800 405.28">
  <defs>
    <style>
      .cls-1 {
        stroke-width: .64px;
      }

      .cls-1, .cls-2 {
        stroke: #000;
        stroke-miterlimit: 10;
      }

      .cls-3 {
        fill: #68450c;
      }

      .cls-2 {
        stroke-width: 1.7px;
      }

      .cls-4 {
        fill: url(#linear-gradient);
      }

      .cls-5 {
        fill: #c29e03;
      }

      .cls-6 {
        fill: #0a71a4;
      }
    </style>
    <linearGradient id="linear-gradient" x1="400" y1="400.39" x2="400" y2="0" gradientUnits="userSpaceOnUse">
      <stop offset="0" stop-color="#f2c94c"/>
      <stop offset="1" stop-color="#f2994a"/>
    </linearGradient>
  </defs>
  <g id="Layer_1-2" data-name="Layer 1">
    <path class="cls-4" d="m650.84,250.84c0,14.01-1.15,27.76-3.35,41.15-3.32,20.09-9.02,39.37-16.81,57.54-.17.41-.35.82-.54,1.23-3.57,8.25-7.59,16.27-12.02,24.03-12.89,2.76-25.86,5.27-38.9,7.55-50.56,8.83-101.52,14.05-152.78,16.43-43.48,2.02-86.97,2.14-130.47.45-20.84-.81-41.66-1.93-62.47-3.42-.05.01-.11,0-.17.01-8.23-.03-16.38-1.23-24.57-1.7h-.02l-.31-.03c-5.05-.34-10.1-.72-15.15-1.13-7.16-10.38-13.54-21.32-19.08-32.75-16.04-33.05-25.04-70.15-25.04-109.36C149.16,112.31,261.47,0,400,0s250.84,112.31,250.84,250.84Z"/>
    <path d="m398.85,50.8c-1.67,5.66-4.53,10.71-7.98,15.48-10.41,14.36-24.38,24.59-39.21,33.84q-6.24,3.89-1.77,9.65c4.48,5.78,5.01,5.88,11.61,2.28,4.03-2.2,8.63-1.46,11.36,1.82,2.98,3.61,3.13,8.91-.39,12.11-3.07,2.79-2.88,4.65-.08,7.4,4.36,4.28,8.42,8.87,12.54,13.39,1.46,1.6,4.47,3.03,1.97,5.75-2.26,2.44-4.86,4.89-8.71,2.76-6.31-3.51-12.88-6.53-18.9-10.57-14.06-9.42-29.97-13.65-46.44-16.13-5.12-.77-9.89.46-14.36,3.13-12.35,7.39-25.37,13.14-39.55,16.04-.98.2-2.15.36-2.52,1.24-.53,1.29.8,1.89,1.56,2.64,1.29,1.27,2.67,2.47,3.83,3.84,1.19,1.41,4.21,2.31,2.16,4.95-1.86,2.39-4.22,4.16-7.55,2.56-4.25-2.05-8.61-3.92-12.72-6.22-5.82-3.25-11.78-5.58-18.62-4.77-1.73.21-3.69-.07-3.91-2.16-.34-3.04-2.47-3.59-4.76-4.35-9.62-3.18-19.21-6.43-28.8-9.67-.91-.31-2.04-.48-2.11-1.7-.08-1.29.85-1.91,1.94-2.41,3.37-1.56,6.83-.96,10.23-.36,8.35,1.45,16.67,3.07,25.01,4.59,4.82.88,5.57.2,5.19-4.89-.53-7.07-1.11-14.14-1.7-21.2-.21-2.5.38-4.64,2.26-6.42,3.58-3.4,6.02-3.34,8.88.7,3.46,4.87,6.63,9.95,10.01,14.87,2.71,3.93,4.01,4.1,7.73,1.22,2.75-2.12,5.33-4.48,8.17-6.47,2.74-1.92,2.56-3.46.12-5.46-9.22-7.55-19.15-13.8-30.58-17.46-7.39-2.38-14.75-4.82-22.13-7.24-.05-.02-.09-.03-.14-.05-11.86-4.48-23.73-8.92-35.57-13.45-1.74-.66-4.38-.92-4.33-3.23.06-2.37,2.38-3.54,4.42-4.5,2.69-1.25,5.41-.74,8.15-.15,13.68,2.9,27.37,5.77,41.05,8.66.3.11.6.21.9.31,3.14,1.03,6.34,1.43,9.71,1.11,9.34-.88,18.07,2.63,27.09,4.08,3.43.55,6.84,1.24,10.19,2.11,4.38,1.14,8.23.56,12.38-1.56,5.35-2.72,10.98-2.67,16,1.53,2.77,2.31,5.5,2.36,9.18,1.09,10.69-3.66,18.48-11.69,27.81-17.37,11.05-6.72,21.91-13.7,33.95-18.56,8.16-3.3,16.35-2.53,24.48.1,3.65,1.18,3.86,3.99,2.93,7.1Z"/>
    <g>
      <path class="cls-3" d="m767.18,325.12c-.09.12-.18.22-.27.33-1.38,1.49-3.4,1.67-5.18,2.25-66.95,22.1-135.7,35.69-205.7,43.41-23.39,2.58-46.84,4.34-70.31,5.84-1.02.07-2.05-.07-3.08-.11.24-.35.49-.71.74-1.05,19.97-28.86,39.93-57.73,59.94-86.57,3.76-5.44,8.67-9.83,13.41-14.38.02,0,.03-.02.04-.03,5.69-3.77,11.46-7.45,18.39-8.42,13.01-1.84,23.8,2.92,32.9,11.85,15.18,14.89,30.19,29.95,45.3,44.92,3.86,3.82,8,7.27,13.17,9.27,6.61,2.56,12.62,1.62,17.9-3.19,4.78-4.36,7.77-9.86,10.05-15.81,3.77-9.82,13.41-16.06,24.09-15.8,8.19.19,15.66,2.73,22.74,6.62,8.86,4.88,16.74,11.06,23.95,18.12.81.8,1.86,1.45,1.94,2.76Z"/>
      <path class="cls-5" d="m406.74,237.83c-.3-.85-1.13-.9-1.8-1.2,1-.57,2.18-.95,3.04-.15.36.34-.58,1.08-1.24,1.35Z"/>
      <path class="cls-6" d="m800,308.8v10.76c-1.41.66-2.82,1.32-4.24,1.98-57.07,26.41-116.51,45.07-177.64,58.13-12.89,2.76-25.86,5.27-38.9,7.55-50.56,8.83-101.52,14.05-152.78,16.43-43.48,2.02-86.97,2.14-130.47.45-20.84-.81-41.66-1.93-62.47-3.42-.05.01-.11,0-.17.01-8.23-.03-16.38-1.23-24.59-1.7l-.31-.03c-5.05-.34-10.1-.72-15.15-1.13-14.81-1.21-29.59-2.69-44.38-4.14-21.99-2.15-43.84-5.47-65.7-8.72-27.85-4.14-55.56-9.02-83.2-14.4v-31.47c.34.06.68.13,1.02.2,47.01,9.68,94.7,16.6,142.34,22.37,22.15,2.68,44.49,5.72,66.77,7.12,5.68.52,64.7,4.65,64.7,5.17,18.82,1.5,37.73,1.86,56.63,2.39,18.06.5,36.12.72,54.18.62,23.22-.13,46.44-.78,69.63-2.1,8.33-.48,16.67-.89,24.98-1.56.57-.02,1.14-.04,1.7-.07,2.96-.12,5.91-.29,8.87-.5,9.8-.65,19.58-1.66,29.36-2.6,28.53-2.76,56.96-6.5,85.23-11.23,8.44-1.41,16.87-2.91,25.27-4.5,17.62-3.34,35.16-7.08,52.61-11.25,17.53-4.19,34.96-8.82,52.26-13.92,17.43-5.14,34.66-11.05,52.02-16.46,4.16-1.3,8.35-2.43,12.44-3.98Z"/>
    </g>
    <g>
      <path class="cls-2" d="m56.98,312.78c-.83.31-3.07-.79-4.83-2.15-1.76-1.35-3.24-3.08-4.44-5.17-1.2-2.09-1.98-4.43-1.64-6.05,1.82-8.82,9.02-19.46,13.79-28.87-3.56-.19-6.46-1.3-8.7-3.31-2.24-2.01-3.28-4.34-3.13-6.98.16-2.77,7.38-5.84,21.49-9.48.46-.81,1.47-2.88,3.02-6.22,1.55-3.33,3.45-7.39,5.67-12.16,2.22-4.77,4.56-9.89,6.99-15.36,2.43-5.46,4.77-10.73,7.01-15.8,2.24-5.06,4.21-9.55,5.91-13.46,1.7-3.91,2.91-6.69,3.64-8.33,1.61-3.7,4.3-6.86,8.06-9.47,3.75-2.61,7.35-3.89,10.81-3.83,1.73.03,3.38,1.87,4.97,5.5,1.59,3.64,3.1,8.31,4.55,14.03,1.45,5.72,2.74,11.84,3.88,18.39,1.14,6.55,2.13,12.84,2.97,18.89.84,6.05,1.46,11.1,1.84,15.13,1.95-.26,3.78-.57,5.52-.91,1.73-.34,3.29-.51,4.68-.51,3.19,0,5.55.59,7.07,1.76,1.53,1.17,2.3,2.67,2.31,4.47.01,2.64-6.08,5.76-18.42,9.16.4,4.73.69,9.91.89,15.54.2,5.63.37,10.99.5,16.06.14,5.08.21,9.35.21,12.82,0,5.84-.24,10.08-.75,12.72-.5,2.64-1.26,4.31-2.28,4.99-1.01.69-2.32,1.03-3.92,1.01-2.32-.02-4.14-1.22-5.43-3.6-1.29-2.38-2.18-5.1-2.66-8.17-.48-3.06-.86-5.71-1.12-7.94-.52-6.68-.98-13.29-1.4-19.83-.42-6.54-.87-13.01-1.33-19.41-7.19,1.69-14.09,3.3-20.69,4.85-6.6,1.55-13.48,3.16-20.64,4.81-6.51,14.6-15.27,43.47-24.41,46.86Zm32.95-66.56c4.95-1.21,10.05-2.27,15.31-3.17,5.26-.9,10.68-1.79,16.27-2.66-.95-10.45-1.9-20.91-3.11-31.33-1.03-8.91-2-16.37-2.92-22.37-3.16,7.16-6.87,15.69-11.13,25.58-4.86,11.28-9.64,22.62-14.41,33.95Z"/>
      <path class="cls-2" d="m177.58,303.18c-2.93.11-5.88-.86-8.64-2.73-2.76-1.86-5.01-4.19-6.74-6.97-1.73-2.78-2.6-5.62-2.63-8.51-.04-4.09.63-8.63,2.01-13.63,1.37-5,3.27-9.97,5.67-14.93,2.41-4.96,5.25-9.53,8.52-13.73,3.27-4.19,6.81-7.57,10.62-10.15,3.81-2.58,7.77-3.93,11.92-4.05,7.01-.21,12.02,3.85,15.12,12.21,1.99-9.44,3.65-19.07,4.82-28.64,1.03-8.42,1.44-15.78,1.5-21.77.03-2.95,1.08-4.54,3-4.62,1.05-.05,2.31.59,3.76,1.92,1.45,1.33,2.78,2.96,3.97,4.9,1.2,1.94,1.84,3.75,1.92,5.44.06,1.2-.18,3.98-.71,8.35-.53,4.37-1.3,9.7-2.34,15.99-1.04,6.29-2.19,13.04-3.45,20.23-1.27,7.2-2.65,14.32-4.15,21.37-1.5,7.05-2.97,13.48-4.4,19.27-1.43,5.8-2.77,10.44-4.01,13.93-1.24,3.49-2.28,5.25-3.1,5.28-1.34.05-2.92-.8-4.74-2.53-.75-.67-1.39-1.45-1.94-2.33-.55-.88-.84-2.02-.89-3.41-.02-.7.07-1.62.28-2.78.21-1.15.4-2.38.56-3.69-6.61,7.32-15.78,15.21-25.92,15.58Zm1.44-12c2.05-.04,4.54-.88,7.47-2.54,2.92-1.66,5.93-3.9,9.01-6.73,3.07-2.83,5.87-6.08,8.38-9.75,2.51-3.67,5.07-8,5.5-11.41.65-5.14-1.33-11.05-3.3-14.63-1.97-3.57-4.23-5.32-6.82-5.25-3.08.09-6.22,1.52-9.45,4.3-3.23,2.77-6.18,6.37-8.85,10.81-2.68,4.44-4.83,9.24-6.47,14.4-1.63,5.16-2.42,10.13-2.34,14.92.03,1.8.72,3.23,2.07,4.31,1.35,1.08,2.95,1.6,4.8,1.57Z"/>
      <path class="cls-2" d="m241.87,300.93c-.82.04-1.93-.45-3.33-1.47-1.4-1.03-2.62-2.19-3.67-3.48-1.05-1.3-1.59-2.34-1.63-3.14-.12-2.19.29-5.13,1.22-8.82.93-3.69,2.01-8.04,3.26-13.05,1.25-5.01,2.25-10.63,3.01-16.86.76-6.23.93-12.94.54-20.11-.17-3.09,0-5.19.47-6.32.48-1.12,1.21-1.71,2.2-1.77,1.47-.08,2.96.38,4.44,1.39,1.49,1.01,2.77,2.25,3.85,3.74,1.08,1.48,1.67,3.02,1.77,4.61.34,14.9-3.68,29.57-7.26,43.9.18-.01.27-.02.46-.03,4.6-10.69,9.38-21.36,14.77-31.65,4.23-8.08,8.09-14.06,11.56-17.92,3.47-3.86,6.76-5.92,9.9-6.18,1.86-.15,3.9.65,6.12,2.42,2.22,1.76,4.2,4.09,5.94,6.99,1.74,2.9,2.76,5.94,3.04,9.11.2,2.19.28,4.51.25,6.96-.03,2.46-.28,5.01-.74,7.65.18-.02.27-.02.45-.04,4.13-9.28,8.15-18.79,14.17-27.03,4.57-6.26,9.14-9.65,13.73-10.15,1.95-.21,3.88.53,5.79,2.22,1.91,1.69,3.58,4.01,5.01,6.96,1.42,2.95,2.34,6.16,2.74,9.62.31,2.68.37,6.24.17,10.67-.19,4.44-.6,9.21-1.24,14.29-.63,5.09-1.53,9.94-2.69,14.53-1.16,4.59-2.56,8.41-4.17,11.44-1.62,3.03-3.45,4.65-5.49,4.87-1.22.13-2.08-.16-2.57-.86-.49-.7-.81-1.85-.98-3.43-.27-2.58-.08-5.58.58-9.01.66-3.43,1.46-7.19,2.39-11.3.93-4.11,1.68-8.45,2.24-13.03.57-4.57.58-9.24.07-14-.28-2.58-.71-4.56-1.31-5.95-.6-1.39-1.44-2.03-2.52-1.91-2.16.23-4.38,1.89-6.66,4.98-2.28,3.09-4.57,7-6.87,11.73-2.3,4.73-4.54,9.75-6.73,15.06-2.18,5.31-4.27,10.3-6.25,14.98-1.98,4.68-3.84,8.52-5.58,11.52-1.74,3-3.28,4.55-4.61,4.66-1.33.11-2.83-.55-4.49-1.97-1.66-1.42-2.55-2.93-2.68-4.52-.14-1.69.23-3.79,1.1-6.31.87-2.52,1.87-5.6,2.99-9.24,1.12-3.64,2.01-7.92,2.66-12.82.65-4.9.7-10.59.16-17.05-.17-2.09-.76-3.82-1.77-5.18-1.01-1.36-2.06-2.01-3.14-1.92-1.78.14-3.81,1.86-6.1,5.13-2.3,3.28-4.87,7.62-7.75,13.02-2.88,5.4-6.06,11.42-9.58,18.05-3.51,6.62-7.37,13.36-11.57,20.19-2.33,3.83-4.23,5.78-5.67,5.86Z"/>
      <path class="cls-2" d="m358.08,290.55c-1.42.18-2.71-.25-3.87-1.26-1.16-1.01-1.83-2.27-2.01-3.75-.05-.4.1-2.32.44-5.78.34-3.45.79-7.71,1.33-12.75.54-5.04,1.15-10.36,1.81-15.98.66-5.61,1.28-10.89,1.86-15.84.58-4.95,1.04-8.99,1.47-12.02.71-4.98,1.86-7.63,3.31-7.82,1.26-.17,2.55.22,3.85,1.15,1.31.93,2.45,2.11,3.43,3.54.98,1.43,1.57,2.88,1.77,4.36.37,2.77.25,7.01-.39,12.73-.64,5.72-1.6,12.47-2.9,20.23-1.3,7.77-2.76,16.15-4.53,24.95-1.03,5.14-2.94,7.91-5.58,8.23Zm15.87-86.41c-1.54.22-3.35-.24-5.41-1.37-2.06-1.13-3.88-2.52-5.46-4.17-1.58-1.65-2.45-3.12-2.61-4.41-.25-1.98.28-3.96,1.58-5.94,1.3-1.98,2.76-3.09,4.38-3.31.95-.13,2.27.67,3.95,2.4,1.69,1.73,3.22,3.78,4.62,6.15,1.39,2.37,2.22,4.44,2.46,6.22.14.99-.18,1.94-.93,2.85-.76.91-1.62,1.44-2.58,1.57Z"/>
      <path class="cls-2" d="m391.92,286.51c-1.82.26-3.39-.53-4.68-2.36-1.3-1.83-2.05-3.49-2.26-4.97-.32-2.27-.23-4.88.27-7.82.5-2.94,1.03-6.34,1.6-10.2.57-3.86.94-8.32,1.11-13.38.18-5.06-.21-10.85-1.14-17.37-.27-1.87-.64-3.96-1.12-6.26-.48-2.3-.85-4.39-1.11-6.26-.21-1.48-.12-2.8.25-3.97.38-1.16,1.1-1.82,2.17-1.98,2.32-.34,4.43.76,6.34,3.29,1.91,2.53,3.11,5.38,3.58,8.54.37,2.47.55,4.71.56,6.72,3.91-9.15,10.6-21.28,20.98-23.33,4.55-.9,7.28-.02,7.67,2.35.2,1.18-.12,2.4-.95,3.65-.83,1.26-2.42,2.62-4.62,4.12-3.03,2.06-5.73,4.64-8.06,7.54-2.34,2.9-4.43,6.64-6.28,11.22-1.85,4.58-3.53,10.41-5.03,17.5-1.51,7.09-3.02,15.83-4.54,26.24-.31,2.06-.9,3.66-1.76,4.79-.86,1.13-1.86,1.78-2.97,1.94Z"/>
      <path class="cls-2" d="m451.92,276.52c-2.93.59-6.27.18-9.75-1.09-3.48-1.27-6.52-3.1-9.09-5.5-2.57-2.39-4.09-4.98-4.56-7.73-.73-4.33-.57-9.16.45-14.49,1.02-5.33,2.69-10.7,4.98-16.11,2.29-5.41,4.92-10.43,7.89-15.07,2.97-4.64,6.13-8.51,9.48-11.63,3.35-3.11,6.6-4.98,9.76-5.59,4.31-.84,8.7.58,13.22,4.24,2.15,1.8,3.91,3.56,5.26,5.27,1.35,1.71,2.21,3.49,2.59,5.35.38,1.86.49,3.77.34,5.73-.16,1.97-.71,4.07-1.68,6.3,1.46,1.23,2.31,2.38,2.53,3.46.74,3.61,1.09,8.46,1.05,14.52-.04,6.07.13,13.55.75,22.21.18,2.48-.45,3.91-1.95,4.2-1.2.24-2.35-.17-3.44-1.22-1.09-1.05-2.05-2.47-2.87-4.24-.82-1.77-1.54-3.56-2.15-5.37-.61-1.81-1.04-3.3-1.27-4.48-4.34,8.85-11.42,19.19-21.53,21.23Zm-2.83-12.11c3.19-.57,6.39-2.63,9.58-6.16,3.19-3.53,5.95-8.04,8.26-13.51,2.31-5.47,3.6-11.34,3.89-17.6.02-1.43.67-2.52,1.93-3.28-1.8-9.1-4.47-13.29-8.03-12.6-2.41.47-4.82,2.02-7.23,4.66-2.41,2.64-4.67,5.9-6.77,9.79-2.11,3.89-3.98,8.01-5.63,12.35-1.65,4.35-2.85,8.47-3.59,12.34-.74,3.88-.89,7.09-.44,9.65.3,1.67,1.23,2.9,2.81,3.68,1.58.78,3.32,1.01,5.21.67Z"/>
      <path class="cls-2" d="m509.22,265.2c-.9.19-2.05-.09-3.47-.86-1.42-.77-2.71-1.72-3.89-2.84-1.18-1.13-1.85-2.08-2.01-2.86-.1-.49-.09-2.48.04-5.97.13-3.49.25-8.11.36-13.84.1-5.73.16-12.14.15-19.23,0-7.09-.19-14.5-.56-22.23-.36-7.73-.94-15.36-1.73-22.9-.78-7.53-1.87-14.52-3.24-20.96-.29-1.36-.31-2.38-.07-3.05.24-.67.97-1.13,2.18-1.4.83-.19,2.06.23,3.69,1.24,1.63,1.01,3.21,2.34,4.74,3.98,1.53,1.64,2.5,3.34,2.89,5.09,1.49,6.72,2.67,13.94,3.5,21.67.84,7.74,1.39,15.54,1.64,23.4.25,7.87.29,15.4.11,22.59-.18,7.19-.49,13.65-.93,19.36-.44,5.71-.97,10.24-1.58,13.59-.61,3.35-1.22,5.09-1.82,5.22Z"/>
    </g>
    <g>
      <path class="cls-1" d="m273.94,316.85c.13,2.62.19,3.94.32,6.56,2.28-.13,3.41-.2,5.69-.34.07,1.26.1,1.9.17,3.16-2.28.14-3.42.21-5.7.34.24,4.93.37,7.39.62,12.32.14,2.83,1.01,4.39,3.25,4.26,1.05-.06,1.82-.25,2.32-.42.14,1.24.21,1.86.36,3.1-.76.38-1.99.69-3.55.78-1.88.11-3.43-.47-4.45-1.5-1.15-1.16-1.72-3.17-1.85-5.86-.24-4.98-.36-7.48-.59-12.46-1.36.07-2.04.11-3.4.18-.06-1.26-.08-1.9-.14-3.16,1.36-.07,2.03-.11,3.39-.18-.1-2.19-.15-3.29-.25-5.48,1.53-.52,2.29-.78,3.82-1.3Z"/>
      <path class="cls-1" d="m284.36,329.94c-.15-2.69-.33-5-.58-7.11,1.39-.09,2.08-.14,3.47-.23.16,1.79.24,2.68.4,4.47.07,0,.11,0,.18-.01.81-3.13,3.09-5.23,5.74-5.42.45-.03.77,0,1.13.06.1,1.57.15,2.35.25,3.91-.41-.07-.82-.08-1.36-.05-2.8.2-4.65,2.55-5.01,5.7-.06.57-.11,1.24-.07,1.95.29,4.87.44,7.3.74,12.17-1.59.11-2.39.16-3.99.26-.37-6.28-.55-9.42-.91-15.71Z"/>
      <path class="cls-1" d="m311.79,343.69c-.22-1.14-.32-1.71-.54-2.85-.05,0-.08,0-.14.01-1.09,1.89-3.35,3.69-6.5,3.94-4.48.35-6.99-2.74-7.21-6.04-.37-5.51,4.15-8.86,12.61-9.52-.01-.19-.02-.28-.04-.47-.14-1.88-.89-5.23-5.35-4.87-2.03.16-4.1.98-5.57,2.14-.43-1.07-.65-1.6-1.08-2.67,1.72-1.36,4.28-2.36,7.02-2.58,6.65-.53,8.63,4.07,8.98,8.64.26,3.41.4,5.12.66,8.53.16,1.98.4,3.9.8,5.43-1.46.13-2.19.19-3.65.31Zm-1.47-11.59c-4.36.27-9.24,1.45-8.94,5.88.19,2.69,2.01,3.83,4.06,3.67,2.87-.23,4.55-2.26,5.04-4.25.1-.44.16-.92.13-1.34-.12-1.58-.18-2.37-.3-3.96Z"/>
      <path class="cls-1" d="m320.4,319.99c2.12,4.97,3.19,7.45,5.35,12.41.9,2,1.65,3.83,2.27,5.67.05,0,.08,0,.14-.01.33-1.93.8-3.87,1.34-6.01,1.25-5.28,1.87-7.93,3.09-13.21,1.65-.16,2.47-.25,4.12-.42-2.56,9.46-3.86,14.18-6.5,23.63-1.53.15-2.3.22-3.83.36-4.15-8.8-6.19-13.21-10.2-22.03,1.69-.15,2.53-.22,4.22-.38Z"/>
      <path class="cls-1" d="m342.9,330.02c.64,5.59,4.31,7.52,8.3,7.08,2.85-.32,4.52-1.03,5.94-1.86.4,1.15.6,1.73,1,2.88-1.33.82-3.66,1.85-7.15,2.24-6.77.75-11.26-3.45-11.92-10.32-.65-6.87,2.69-12.67,8.99-13.36,7.06-.78,9.63,5.51,10.08,9.69.09.84.07,1.51.07,1.94-6.12.72-9.18,1.06-15.32,1.71Zm11.31-4.24c-.23-2.64-1.73-6.59-6.16-6.1-3.98.44-5.36,4.48-5.39,7.38,4.63-.49,6.94-.75,11.56-1.28Z"/>
      <path class="cls-1" d="m360.3,305.03c1.56-.19,2.34-.28,3.89-.48,1.25,11.11,2.51,22.22,3.79,33.33-1.59.2-2.39.29-3.98.49-1.25-11.11-2.48-22.22-3.7-33.34Z"/>
      <path class="cls-1" d="m399.02,310.6c.14,1.65.3,3.49.68,6.25.72,5.26,1.09,7.89,1.82,13.15.72,5.19.14,8.53-1.67,10.8-1.85,2.32-4.84,3.47-7.61,3.85-2.63.37-5.63.11-7.55-.87.24-1.31.36-1.96.59-3.27,1.57.74,3.95,1.28,6.67.9,4.08-.57,6.76-3.21,5.98-8.92-.14-1.01-.21-1.52-.35-2.53-.04,0-.05,0-.09.01-.93,2.28-3.04,4.31-6.42,4.78-5.41.76-9.9-3.51-10.68-9.79-.95-7.69,3.27-12.68,8.19-13.38,3.73-.52,6.04,1.24,7.22,2.97.04,0,.05,0,.09-.01-.11-1.38-.17-2.07-.28-3.44,1.37-.2,2.05-.3,3.41-.5Zm-2.83,9.53c-.1-.7-.22-1.3-.48-1.84-1.04-2.29-3.21-3.97-6.05-3.57-3.74.53-5.99,4.22-5.32,9.46.57,4.45,3.2,7.86,7.48,7.26,2.43-.34,4.42-2.25,4.91-5,.13-.73.11-1.54.01-2.24-.22-1.63-.33-2.44-.55-4.07Z"/>
      <path class="cls-1" d="m405.6,316.82c-.38-2.67-.75-4.95-1.18-7.04,1.36-.21,2.04-.31,3.41-.52.31,1.77.46,2.65.77,4.42.07-.01.11-.02.18-.03.54-3.19,2.6-5.47,5.21-5.89.44-.07.76-.07,1.12-.04.23,1.55.35,2.33.58,3.88-.41-.03-.82-.01-1.35.07-2.75.44-4.38,2.94-4.46,6.11,0,.57,0,1.24.1,1.94.7,4.82,1.05,7.24,1.76,12.06-1.56.24-2.35.36-3.91.6-.9-6.23-1.34-9.34-2.23-15.57Z"/>
      <path class="cls-1" d="m439.3,315.45c1.39,8.34-3.54,12.95-8.78,13.84-5.87.99-11.09-2.77-12.17-9.91-1.14-7.57,2.87-12.76,8.78-13.75,6.12-1.04,11.03,2.93,12.18,9.83Zm-17.01,3.14c.76,4.95,4.07,8.24,7.92,7.59,3.75-.63,5.96-4.81,5.13-9.89-.63-3.82-3.22-8.35-7.81-7.58-4.59.78-5.9,5.58-5.23,9.87Z"/>
      <path class="cls-1" d="m462.65,316.6c.43,2.32.85,4.36,1.31,6.1-1.39.27-2.08.4-3.47.67-.36-1.45-.53-2.18-.89-3.63-.04,0-.05,0-.09.02-.69,2.01-2.54,4.81-6.37,5.52-3.39.63-7.79-.59-9.14-8.51-.9-5.27-1.34-7.91-2.23-13.18,1.55-.28,2.32-.42,3.87-.7.85,4.99,1.28,7.49,2.14,12.48.74,4.28,2.49,6.95,6.05,6.28,2.62-.49,4.1-2.74,4.48-4.69.11-.65.11-1.42-.02-2.16-1-5.52-1.49-8.28-2.48-13.81,1.54-.29,2.31-.44,3.85-.74,1.19,6.54,1.78,9.82,2.98,16.36Z"/>
      <path class="cls-1" d="m466.99,306.42c-.54-2.88-1.06-5.18-1.54-7.3,1.38-.27,2.07-.41,3.45-.69.36,1.53.54,2.29.9,3.82.04,0,.05-.01.09-.02,1.06-3.06,3.24-5.18,6.68-5.89,5.1-1.05,9.85,2.71,11.22,9.52,1.63,8.06-2.25,13.04-7.3,14.08-2.84.58-5.58-.21-7.29-2.18-.04,0-.05.01-.09.02.93,4.88,1.4,7.32,2.34,12.2-1.55.31-2.33.47-3.89.77-1.85-9.73-2.77-14.59-4.58-24.33Zm4.96,5.23c.11.6.31,1.14.49,1.63,1.25,2.69,3.97,4.16,6.76,3.59,4.12-.84,5.79-4.87,4.77-10.01-.9-4.49-3.88-7.87-7.95-7.03-2.62.54-4.69,3.03-4.86,6.24-.04.54-.05,1.17.05,1.72.29,1.54.44,2.31.73,3.85Z"/>
    </g>
  </g>
</svg>