<svg width="24" height="24" viewBox="0 0 24 24" fill="none" xmlns="http://www.w3.org/2000/svg">
<path d="M6.42375 4.5H8.4V9H4.17375L5.31375 5.44219C5.49375 4.875 5.9325 4.5 6.42375 4.5ZM10.2 9V4.5H13.245C13.6088 4.5 13.9538 4.70625 14.1825 5.0625L16.7025 9H10.2ZM19.8075 9.04688L16.0575 3.1875C15.375 2.11875 14.34 1.5 13.245 1.5H6.42375C4.95 1.5 3.62625 2.62031 3.0825 4.32656L1.5225 9.20625C0.63 9.64687 0 10.7297 0 12V17.25C0 18.0797 0.53625 18.75 1.2 18.75H2.44875C2.73375 20.8781 4.215 22.5 6 22.5C7.785 22.5 9.26625 20.8781 9.55125 18.75H14.4488C14.7338 20.8781 16.215 22.5 18 22.5C19.785 22.5 21.2663 20.8781 21.5513 18.75H22.8C23.4638 18.75 24 18.0797 24 17.25V15C24 11.9438 22.17 9.42188 19.8075 9.04688ZM16.3013 17.25C16.3776 16.9676 16.4982 16.707 16.6558 16.4834C16.8134 16.2597 17.0051 16.0774 17.2195 15.9471C17.434 15.8168 17.6671 15.7411 17.9052 15.7243C18.1432 15.7076 18.3816 15.7501 18.6065 15.8495C18.8313 15.9488 19.0381 16.1031 19.2148 16.3032C19.3915 16.5033 19.5347 16.7453 19.636 17.0152C19.7373 17.285 19.7946 17.5774 19.8048 17.8752C19.8149 18.173 19.7776 18.4704 19.695 18.75C19.6186 19.0324 19.4981 19.293 19.3405 19.5166C19.1828 19.7403 18.9912 19.9226 18.7767 20.0529C18.5622 20.1832 18.3292 20.2589 18.0911 20.2757C17.853 20.2924 17.6146 20.2499 17.3898 20.1505C17.165 20.0512 16.9582 19.8969 16.7814 19.6968C16.6047 19.4967 16.4615 19.2547 16.3603 18.9848C16.259 18.715 16.2016 18.4226 16.1915 18.1248C16.1814 17.827 16.2187 17.5296 16.3013 17.25ZM6 15.75C6.47739 15.75 6.93523 15.9871 7.27279 16.409C7.61036 16.831 7.8 17.4033 7.8 18C7.8 18.5967 7.61036 19.169 7.27279 19.591C6.93523 20.0129 6.47739 20.25 6 20.25C5.52261 20.25 5.06477 20.0129 4.72721 19.591C4.38964 19.169 4.2 18.5967 4.2 18C4.2 17.4033 4.38964 16.831 4.72721 16.409C5.06477 15.9871 5.52261 15.75 6 15.75Z" fill="#F2BC4B"/>
</svg>
