<svg width="24" height="24" viewBox="0 0 24 24" fill="none" xmlns="http://www.w3.org/2000/svg">
<path d="M18.5999 4.19995C19.3956 4.19995 20.1586 4.51602 20.7212 5.07863C21.2838 5.64124 21.5999 6.4043 21.5999 7.19995V16.8C21.5999 17.5956 21.2838 18.3587 20.7212 18.9213C20.1586 19.4839 19.3956 19.8 18.5999 19.8H5.3999C4.60425 19.8 3.84119 19.4839 3.27858 18.9213C2.71597 18.3587 2.3999 17.5956 2.3999 16.8V7.19995C2.3999 6.4043 2.71597 5.64124 3.27858 5.07863C3.84119 4.51602 4.60425 4.19995 5.3999 4.19995H18.5999ZM20.3999 8.95315L12.3047 13.7172C12.2282 13.7621 12.1426 13.7895 12.0542 13.7974C11.9658 13.8053 11.8768 13.7934 11.7935 13.7628L11.6951 13.7172L3.5999 8.95555V16.8C3.5999 17.2773 3.78954 17.7352 4.12711 18.0727C4.46468 18.4103 4.92251 18.6 5.3999 18.6H18.5999C19.0773 18.6 19.5351 18.4103 19.8727 18.0727C20.2103 17.7352 20.3999 17.2773 20.3999 16.8V8.95315ZM18.5999 5.39995H5.3999C4.92251 5.39995 4.46468 5.58959 4.12711 5.92716C3.78954 6.26472 3.5999 6.72256 3.5999 7.19995V7.56235L11.9999 12.504L20.3999 7.55995V7.19995C20.3999 6.72256 20.2103 6.26472 19.8727 5.92716C19.5351 5.58959 19.0773 5.39995 18.5999 5.39995Z" fill="white"/>
</svg>
